<svg width="1400" height="900" viewBox="0 0 1400 900" fill="none" xmlns="http://www.w3.org/2000/svg" role="img" aria-labelledby="title desc">
  <title id="title">Codex Limit Guard dashboard</title>
  <desc id="desc">Premium dark macOS dashboard with sidebar, quota ring, quota windows, and hybrid stop ladder.</desc>
  <defs>
    <linearGradient id="window" x1="0" y1="0" x2="1" y2="1"><stop stop-color="#0B1020"/><stop offset="0.5" stop-color="#15132A"/><stop offset="1" stop-color="#092633"/></linearGradient>
    <linearGradient id="accent" x1="0" y1="0" x2="1" y2="1"><stop stop-color="#8B5CF6"/><stop offset="0.55" stop-color="#38BDF8"/><stop offset="1" stop-color="#5EEAD4"/></linearGradient>
    <filter id="shadow" x="-20%" y="-20%" width="140%" height="160%"><feDropShadow dx="0" dy="28" stdDeviation="36" flood-color="#000" flood-opacity="0.55"/></filter>
    <filter id="glow"><feGaussianBlur stdDeviation="30"/></filter>
  </defs>
  <rect width="1400" height="900" fill="#050711"/>
  <circle cx="1110" cy="160" r="210" fill="#6D28D9" fill-opacity="0.18" filter="url(#glow)"/>
  <circle cx="560" cy="790" r="250" fill="#0891B2" fill-opacity="0.12" filter="url(#glow)"/>
  <g>
    <rect x="60" y="55" width="1280" height="790" rx="28" fill="url(#window)" stroke="#FFFFFF" stroke-opacity="0.12"/>
    <rect x="60" y="55" width="1280" height="52" rx="28" fill="#FFFFFF" fill-opacity="0.035"/>
    <rect x="60" y="79" width="1280" height="28" fill="#FFFFFF" fill-opacity="0.035"/>
    <circle cx="91" cy="81" r="7" fill="#FF6B7A"/><circle cx="115" cy="81" r="7" fill="#FFC857"/><circle cx="139" cy="81" r="7" fill="#4ADE80"/>
    <text x="700" y="87" text-anchor="middle" fill="#A7B0C5" font-family="-apple-system, BlinkMacSystemFont, Segoe UI, sans-serif" font-size="14" font-weight="600">Codex Limit Guard</text>

    <rect x="60" y="107" width="230" height="738" fill="#FFFFFF" fill-opacity="0.025"/>
    <g font-family="-apple-system, BlinkMacSystemFont, Segoe UI, sans-serif">
      <g transform="translate(86 136)">
        <rect width="178" height="52" rx="15" fill="#7C3AED" fill-opacity="0.18" stroke="#A78BFA" stroke-opacity="0.18"/>
        <circle cx="25" cy="26" r="12" fill="url(#accent)"/><text x="48" y="31" fill="#FFFFFF" font-size="15" font-weight="700">Overview</text>
      </g>
      <text x="134" y="226" fill="#8D97AE" font-size="15">Activity</text><text x="134" y="278" fill="#8D97AE" font-size="15">Settings</text><text x="134" y="330" fill="#8D97AE" font-size="15">About</text>
      <circle cx="108" cy="221" r="8" stroke="#8D97AE" stroke-width="2"/><path d="M103 221L107 225L114 216" stroke="#8D97AE" stroke-width="2" stroke-linecap="round" stroke-linejoin="round"/>
      <path d="M100 273H116M100 278H116M100 283H116" stroke="#8D97AE" stroke-width="2" stroke-linecap="round"/>
      <circle cx="108" cy="325" r="9" stroke="#8D97AE" stroke-width="2"/><text x="108" y="330" text-anchor="middle" fill="#8D97AE" font-size="12" font-weight="700">i</text>

      <rect x="84" y="720" width="182" height="92" rx="17" fill="#FFFFFF" fill-opacity="0.045" stroke="#FFFFFF" stroke-opacity="0.07"/>
      <circle cx="107" cy="746" r="7" fill="#4ADE80"/><text x="124" y="751" fill="#D9FBE7" font-size="13" font-weight="650">Connected</text>
      <text x="102" y="780" fill="#7F8AA3" font-size="12">Accessibility</text><text x="244" y="780" text-anchor="end" fill="#4ADE80" font-size="12">Granted</text>
    </g>

    <g font-family="-apple-system, BlinkMacSystemFont, Segoe UI, sans-serif">
      <text x="332" y="151" fill="#FFFFFF" font-size="30" font-weight="760" letter-spacing="-0.6">Quota overview</text>
      <text x="333" y="179" fill="#8F99B0" font-size="14">All Codex quota windows · updated seconds ago</text>
      <rect x="1164" y="132" width="136" height="40" rx="13" fill="#FFFFFF" fill-opacity="0.06" stroke="#FFFFFF" stroke-opacity="0.09"/>
      <text x="1232" y="157" text-anchor="middle" fill="#DCE3F3" font-size="13" font-weight="650">↻ Refresh now</text>

      <g transform="translate(330 215)">
        <rect width="335" height="330" rx="25" fill="#FFFFFF" fill-opacity="0.055" stroke="#FFFFFF" stroke-opacity="0.10"/>
        <circle cx="168" cy="154" r="104" stroke="#FFFFFF" stroke-opacity="0.07" stroke-width="20"/>
        <path d="M168 50A104 104 0 1 1 80 210" stroke="url(#accent)" stroke-width="20" stroke-linecap="round"/>
        <text x="168" y="148" text-anchor="middle" fill="#FFFFFF" font-size="64" font-weight="780">84</text>
        <text x="218" y="148" fill="#9BA5BA" font-size="23" font-weight="650">%</text>
        <text x="168" y="181" text-anchor="middle" fill="#DCE2EF" font-size="16" font-weight="650">Quota is healthy</text>
        <text x="168" y="207" text-anchor="middle" fill="#7F8AA3" font-size="12">remaining in limiting window</text>
        <rect x="42" y="274" width="251" height="1" fill="#FFFFFF" fill-opacity="0.08"/>
        <circle cx="62" cy="301" r="6" fill="#4ADE80"/><text x="77" y="306" fill="#B6C0D4" font-size="13">Protection active</text>
        <text x="277" y="306" text-anchor="end" fill="#4ADE80" font-size="13" font-weight="700">SAFE</text>
      </g>

      <g transform="translate(690 215)">
        <rect width="610" height="156" rx="24" fill="#FFFFFF" fill-opacity="0.05" stroke="#FFFFFF" stroke-opacity="0.095"/>
        <text x="25" y="35" fill="#F7F8FC" font-size="17" font-weight="700">Quota windows</text>
        <text x="25" y="57" fill="#808AA1" font-size="12">The lowest remaining bucket controls protection.</text>
        <g transform="translate(25 82)">
          <text x="0" y="12" fill="#C9D1E0" font-size="13">5-hour window</text><text x="560" y="12" text-anchor="end" fill="#DDE5F4" font-size="13" font-weight="700">84%</text>
          <rect y="26" width="560" height="9" rx="4.5" fill="#FFFFFF" fill-opacity="0.07"/><rect y="26" width="470" height="9" rx="4.5" fill="url(#accent)"/>
          <text x="0" y="54" fill="#768198" font-size="11">resets today at 17:42</text><text x="560" y="54" text-anchor="end" fill="#768198" font-size="11">primary</text>
        </g>
      </g>

      <g transform="translate(690 389)">
        <rect width="295" height="156" rx="24" fill="#FFFFFF" fill-opacity="0.05" stroke="#FFFFFF" stroke-opacity="0.095"/>
        <text x="22" y="32" fill="#F7F8FC" font-size="16" font-weight="700">Weekly window</text>
        <text x="22" y="58" fill="#8A94AA" font-size="12">Resets in 3 days</text>
        <text x="22" y="115" fill="#FFFFFF" font-size="35" font-weight="760">91%</text>
        <rect x="111" y="101" width="158" height="9" rx="4.5" fill="#FFFFFF" fill-opacity="0.07"/><rect x="111" y="101" width="144" height="9" rx="4.5" fill="#5EEAD4"/>
      </g>
      <g transform="translate(1005 389)">
        <rect width="295" height="156" rx="24" fill="#FFFFFF" fill-opacity="0.05" stroke="#FFFFFF" stroke-opacity="0.095"/>
        <text x="22" y="32" fill="#F7F8FC" font-size="16" font-weight="700">Task state</text>
        <text x="22" y="58" fill="#8A94AA" font-size="12">Exact GUI observation</text>
        <circle cx="34" cy="107" r="12" fill="#4ADE80" fill-opacity="0.16"/><circle cx="34" cy="107" r="5" fill="#4ADE80"/>
        <text x="58" y="112" fill="#D9FBE7" font-size="15" font-weight="650">Idle · ready</text>
      </g>

      <text x="332" y="594" fill="#FFFFFF" font-size="20" font-weight="730">Hybrid stop ladder</text>
      <text x="332" y="619" fill="#8791A7" font-size="13">Escalation is deliberate, reversible, and scoped to exact target apps.</text>
      <g transform="translate(330 644)">
        <rect width="970" height="158" rx="24" fill="#FFFFFF" fill-opacity="0.048" stroke="#FFFFFF" stroke-opacity="0.09"/>
        <g transform="translate(50 32)"><circle cx="28" cy="28" r="28" fill="#FACC15" fill-opacity="0.14"/><text x="28" y="33" text-anchor="middle" fill="#FDE047" font-size="15" font-weight="750">20</text><text x="28" y="84" text-anchor="middle" fill="#F4F6FB" font-size="14" font-weight="700">Warn</text><text x="28" y="104" text-anchor="middle" fill="#79849B" font-size="11">Notify</text></g>
        <path d="M140 60H258" stroke="#FFFFFF" stroke-opacity="0.11" stroke-width="2"/><path d="M252 54L260 60L252 66" stroke="#FFFFFF" stroke-opacity="0.22" stroke-width="2"/>
        <g transform="translate(280 32)"><circle cx="28" cy="28" r="28" fill="#FB923C" fill-opacity="0.14"/><text x="28" y="33" text-anchor="middle" fill="#FDBA74" font-size="15" font-weight="750">15</text><text x="28" y="84" text-anchor="middle" fill="#F4F6FB" font-size="14" font-weight="700">Block</text><text x="28" y="104" text-anchor="middle" fill="#79849B" font-size="11">New work</text></g>
        <path d="M370 60H488" stroke="#FFFFFF" stroke-opacity="0.11" stroke-width="2"/><path d="M482 54L490 60L482 66" stroke="#FFFFFF" stroke-opacity="0.22" stroke-width="2"/>
        <g transform="translate(510 32)"><circle cx="28" cy="28" r="28" fill="#EC4899" fill-opacity="0.14"/><text x="28" y="33" text-anchor="middle" fill="#F9A8D4" font-size="15" font-weight="750">12</text><text x="28" y="84" text-anchor="middle" fill="#F4F6FB" font-size="14" font-weight="700">Soft stop</text><text x="28" y="104" text-anchor="middle" fill="#79849B" font-size="11">AX + Escape</text></g>
        <path d="M600 60H718" stroke="#FFFFFF" stroke-opacity="0.11" stroke-width="2"/><path d="M712 54L720 60L712 66" stroke="#FFFFFF" stroke-opacity="0.22" stroke-width="2"/>
        <g transform="translate(740 32)"><circle cx="28" cy="28" r="28" fill="#FB7185" fill-opacity="0.14"/><text x="28" y="33" text-anchor="middle" fill="#FDA4AF" font-size="15" font-weight="750">10</text><text x="28" y="84" text-anchor="middle" fill="#F4F6FB" font-size="14" font-weight="700">Emergency</text><text x="28" y="104" text-anchor="middle" fill="#79849B" font-size="11">Exact apps</text></g>
        <g transform="translate(887 31)"><rect width="54" height="58" rx="16" fill="#4ADE80" fill-opacity="0.10"/><path d="M18 29L25 36L38 21" stroke="#6EE7A1" stroke-width="4" stroke-linecap="round" stroke-linejoin="round"/><text x="27" y="80" text-anchor="middle" fill="#6EE7A1" font-size="11" font-weight="700">18 RESET</text></g>
      </g>
    </g>
  </g>
</svg>
